<mxfile host="app.diagrams.net" modified="2024-05-26T18:22:42.729Z" agent="Mozilla/5.0 (Windows NT 10.0; Win64; x64) AppleWebKit/537.36 (KHTML, like Gecko) Chrome/125.0.0.0 Safari/537.36" etag="K727ssklZ60Db6pYvu2S" version="24.4.8" type="google" pages="4">
  <diagram name="使用者登入活動圖" id="e7e014a7-5840-1c2e-5031-d8a46d1fe8dd">
    <mxGraphModel grid="1" page="1" gridSize="10" guides="1" tooltips="1" connect="1" arrows="1" fold="1" pageScale="1" pageWidth="1169" pageHeight="826" background="none" math="0" shadow="0">
      <root>
        <mxCell id="0" />
        <mxCell id="1" parent="0" />
        <mxCell id="IUIXN9NgiWwrOQDLlHEh-55" value="" style="ellipse;fillColor=strokeColor;html=1;" vertex="1" parent="1">
          <mxGeometry x="490" y="200" width="30" height="30" as="geometry" />
        </mxCell>
        <mxCell id="IUIXN9NgiWwrOQDLlHEh-56" value="" style="endArrow=classic;html=1;rounded=0;fontSize=12;startSize=8;endSize=8;curved=1;exitX=0.5;exitY=1;exitDx=0;exitDy=0;" edge="1" parent="1" source="IUIXN9NgiWwrOQDLlHEh-55">
          <mxGeometry width="50" height="50" relative="1" as="geometry">
            <mxPoint x="530" y="590" as="sourcePoint" />
            <mxPoint x="505" y="270" as="targetPoint" />
          </mxGeometry>
        </mxCell>
        <mxCell id="IUIXN9NgiWwrOQDLlHEh-57" value="&lt;span style=&quot;font-size: 18px;&quot;&gt;進入&lt;/span&gt;&lt;div&gt;&lt;span style=&quot;font-size: 18px;&quot;&gt;登入畫面&lt;/span&gt;&lt;/div&gt;" style="html=1;align=center;verticalAlign=top;rounded=1;absoluteArcSize=1;arcSize=10;dashed=0;whiteSpace=wrap;" vertex="1" parent="1">
          <mxGeometry x="450" y="270" width="110" height="50" as="geometry" />
        </mxCell>
        <mxCell id="IUIXN9NgiWwrOQDLlHEh-59" value="" style="endArrow=classic;html=1;rounded=0;fontSize=12;startSize=8;endSize=8;curved=1;exitX=0.5;exitY=1;exitDx=0;exitDy=0;" edge="1" parent="1" source="IUIXN9NgiWwrOQDLlHEh-57">
          <mxGeometry width="50" height="50" relative="1" as="geometry">
            <mxPoint x="530" y="590" as="sourcePoint" />
            <mxPoint x="505" y="370" as="targetPoint" />
          </mxGeometry>
        </mxCell>
        <mxCell id="7dZftYyGOrt57Wp2iDv2-2" value="&lt;font style=&quot;font-size: 22px;&quot;&gt;使用者登入&lt;/font&gt;" style="text;html=1;align=center;verticalAlign=middle;resizable=0;points=[];autosize=1;strokeColor=none;fillColor=none;fontSize=16;" vertex="1" parent="1">
          <mxGeometry x="450" y="150" width="130" height="40" as="geometry" />
        </mxCell>
        <mxCell id="7dZftYyGOrt57Wp2iDv2-47" value="&lt;span style=&quot;font-size: 18px;&quot;&gt;選擇登入或&lt;/span&gt;&lt;div&gt;&lt;span style=&quot;font-size: 18px;&quot;&gt;忘記密碼&lt;/span&gt;&lt;/div&gt;" style="html=1;align=center;verticalAlign=top;rounded=1;absoluteArcSize=1;arcSize=10;dashed=0;whiteSpace=wrap;" vertex="1" parent="1">
          <mxGeometry x="450" y="370" width="120" height="55" as="geometry" />
        </mxCell>
        <mxCell id="7dZftYyGOrt57Wp2iDv2-48" value="" style="endArrow=classic;html=1;rounded=0;fontSize=12;startSize=8;endSize=8;curved=1;exitX=0.5;exitY=1;exitDx=0;exitDy=0;" edge="1" parent="1" source="7dZftYyGOrt57Wp2iDv2-47">
          <mxGeometry width="50" height="50" relative="1" as="geometry">
            <mxPoint x="740" y="475.58" as="sourcePoint" />
            <mxPoint x="510" y="470" as="targetPoint" />
          </mxGeometry>
        </mxCell>
        <mxCell id="7dZftYyGOrt57Wp2iDv2-49" value="" style="rhombus;" vertex="1" parent="1">
          <mxGeometry x="495" y="470" width="30" height="30" as="geometry" />
        </mxCell>
        <mxCell id="7dZftYyGOrt57Wp2iDv2-50" value="" style="endArrow=classic;html=1;rounded=0;fontSize=12;startSize=8;endSize=8;curved=1;exitX=0;exitY=0.5;exitDx=0;exitDy=0;entryX=1;entryY=0.5;entryDx=0;entryDy=0;" edge="1" parent="1" source="7dZftYyGOrt57Wp2iDv2-49" target="7dZftYyGOrt57Wp2iDv2-52">
          <mxGeometry relative="1" as="geometry">
            <mxPoint x="415" y="580" as="sourcePoint" />
            <mxPoint x="420" y="485" as="targetPoint" />
          </mxGeometry>
        </mxCell>
        <mxCell id="7dZftYyGOrt57Wp2iDv2-51" value="[忘記密碼]" style="edgeLabel;resizable=0;html=1;fontSize=12;;align=center;verticalAlign=middle;" connectable="0" vertex="1" parent="7dZftYyGOrt57Wp2iDv2-50">
          <mxGeometry relative="1" as="geometry" />
        </mxCell>
        <mxCell id="7dZftYyGOrt57Wp2iDv2-52" value="&lt;span style=&quot;font-size: 18px;&quot;&gt;輸入註冊時&lt;/span&gt;&lt;div&gt;&lt;span style=&quot;font-size: 18px;&quot;&gt;的mail&lt;/span&gt;&lt;/div&gt;" style="html=1;align=center;verticalAlign=top;rounded=1;absoluteArcSize=1;arcSize=10;dashed=0;whiteSpace=wrap;" vertex="1" parent="1">
          <mxGeometry x="280" y="457.5" width="120" height="55" as="geometry" />
        </mxCell>
        <mxCell id="7dZftYyGOrt57Wp2iDv2-53" value="" style="endArrow=classic;html=1;rounded=0;fontSize=12;startSize=8;endSize=8;curved=1;exitX=0;exitY=0.5;exitDx=0;exitDy=0;" edge="1" parent="1" source="7dZftYyGOrt57Wp2iDv2-52">
          <mxGeometry width="50" height="50" relative="1" as="geometry">
            <mxPoint x="290" y="590" as="sourcePoint" />
            <mxPoint x="250" y="485" as="targetPoint" />
          </mxGeometry>
        </mxCell>
        <mxCell id="7dZftYyGOrt57Wp2iDv2-54" value="&lt;span style=&quot;font-size: 18px;&quot;&gt;驗證身分&lt;/span&gt;" style="html=1;align=center;verticalAlign=top;rounded=1;absoluteArcSize=1;arcSize=10;dashed=0;whiteSpace=wrap;" vertex="1" parent="1">
          <mxGeometry x="130" y="457.5" width="120" height="52.5" as="geometry" />
        </mxCell>
        <mxCell id="7dZftYyGOrt57Wp2iDv2-55" value="" style="endArrow=classic;html=1;rounded=0;fontSize=12;startSize=8;endSize=8;curved=1;exitX=0.5;exitY=1;exitDx=0;exitDy=0;" edge="1" parent="1" source="7dZftYyGOrt57Wp2iDv2-54">
          <mxGeometry width="50" height="50" relative="1" as="geometry">
            <mxPoint x="240" y="750" as="sourcePoint" />
            <mxPoint x="190" y="570" as="targetPoint" />
          </mxGeometry>
        </mxCell>
        <mxCell id="7dZftYyGOrt57Wp2iDv2-57" value="" style="rhombus;" vertex="1" parent="1">
          <mxGeometry x="175" y="570" width="30" height="30" as="geometry" />
        </mxCell>
        <mxCell id="7dZftYyGOrt57Wp2iDv2-58" value="" style="edgeStyle=segmentEdgeStyle;endArrow=classic;html=1;curved=0;rounded=0;endSize=8;startSize=8;sourcePerimeterSpacing=0;targetPerimeterSpacing=0;fontSize=12;exitX=1;exitY=0.5;exitDx=0;exitDy=0;entryX=0.5;entryY=1;entryDx=0;entryDy=0;" edge="1" parent="1" source="7dZftYyGOrt57Wp2iDv2-57" target="7dZftYyGOrt57Wp2iDv2-52">
          <mxGeometry width="140" relative="1" as="geometry">
            <mxPoint x="745" y="260" as="sourcePoint" />
            <mxPoint x="805" y="500" as="targetPoint" />
            <Array as="points">
              <mxPoint x="340" y="585" />
            </Array>
          </mxGeometry>
        </mxCell>
        <mxCell id="7dZftYyGOrt57Wp2iDv2-59" value="[錯誤]" style="edgeLabel;html=1;align=center;verticalAlign=middle;resizable=0;points=[];fontSize=12;" connectable="0" vertex="1" parent="7dZftYyGOrt57Wp2iDv2-58">
          <mxGeometry x="-0.1603" y="-1" relative="1" as="geometry">
            <mxPoint as="offset" />
          </mxGeometry>
        </mxCell>
        <mxCell id="7dZftYyGOrt57Wp2iDv2-62" value="&lt;span style=&quot;font-size: 18px;&quot;&gt;重新&lt;/span&gt;&lt;div&gt;&lt;span style=&quot;font-size: 18px;&quot;&gt;設定密碼&lt;/span&gt;&lt;/div&gt;" style="html=1;align=center;verticalAlign=top;rounded=1;absoluteArcSize=1;arcSize=10;dashed=0;whiteSpace=wrap;" vertex="1" parent="1">
          <mxGeometry x="130" y="370" width="120" height="57" as="geometry" />
        </mxCell>
        <mxCell id="lDroLdev7tO085EFxqB0-1" value="" style="edgeStyle=segmentEdgeStyle;endArrow=classic;html=1;curved=0;rounded=0;endSize=8;startSize=8;sourcePerimeterSpacing=0;targetPerimeterSpacing=0;fontSize=12;exitX=0;exitY=0.5;exitDx=0;exitDy=0;entryX=0;entryY=0.5;entryDx=0;entryDy=0;" edge="1" parent="1" source="7dZftYyGOrt57Wp2iDv2-57" target="7dZftYyGOrt57Wp2iDv2-62">
          <mxGeometry width="140" relative="1" as="geometry">
            <mxPoint x="-40" y="584.5" as="sourcePoint" />
            <mxPoint x="95" y="512.5" as="targetPoint" />
            <Array as="points">
              <mxPoint x="95" y="585" />
              <mxPoint x="95" y="399" />
            </Array>
          </mxGeometry>
        </mxCell>
        <mxCell id="lDroLdev7tO085EFxqB0-2" value="[正確]" style="edgeLabel;html=1;align=center;verticalAlign=middle;resizable=0;points=[];fontSize=12;" connectable="0" vertex="1" parent="lDroLdev7tO085EFxqB0-1">
          <mxGeometry x="-0.1603" y="-1" relative="1" as="geometry">
            <mxPoint as="offset" />
          </mxGeometry>
        </mxCell>
        <mxCell id="lDroLdev7tO085EFxqB0-3" value="" style="endArrow=classic;html=1;rounded=0;fontSize=12;startSize=8;endSize=8;curved=1;entryX=0;entryY=0.5;entryDx=0;entryDy=0;" edge="1" parent="1" target="7dZftYyGOrt57Wp2iDv2-47">
          <mxGeometry width="50" height="50" relative="1" as="geometry">
            <mxPoint x="250" y="400" as="sourcePoint" />
            <mxPoint x="300" y="350" as="targetPoint" />
          </mxGeometry>
        </mxCell>
        <mxCell id="lDroLdev7tO085EFxqB0-4" value="" style="endArrow=classic;html=1;rounded=0;fontSize=12;startSize=8;endSize=8;curved=1;exitX=1;exitY=0.5;exitDx=0;exitDy=0;" edge="1" parent="1" source="7dZftYyGOrt57Wp2iDv2-49">
          <mxGeometry relative="1" as="geometry">
            <mxPoint x="685" y="540" as="sourcePoint" />
            <mxPoint x="610" y="485" as="targetPoint" />
          </mxGeometry>
        </mxCell>
        <mxCell id="lDroLdev7tO085EFxqB0-5" value="[登入]" style="edgeLabel;resizable=0;html=1;fontSize=12;;align=center;verticalAlign=middle;" connectable="0" vertex="1" parent="lDroLdev7tO085EFxqB0-4">
          <mxGeometry relative="1" as="geometry" />
        </mxCell>
        <mxCell id="lDroLdev7tO085EFxqB0-6" value="&lt;span style=&quot;font-size: 18px;&quot;&gt;輸入&lt;/span&gt;&lt;div&gt;&lt;span style=&quot;font-size: 18px;&quot;&gt;帳號密碼&lt;/span&gt;&lt;/div&gt;" style="html=1;align=center;verticalAlign=top;rounded=1;absoluteArcSize=1;arcSize=10;dashed=0;whiteSpace=wrap;" vertex="1" parent="1">
          <mxGeometry x="610" y="457.5" width="120" height="55" as="geometry" />
        </mxCell>
        <mxCell id="lDroLdev7tO085EFxqB0-7" value="" style="endArrow=classic;html=1;rounded=0;fontSize=12;startSize=8;endSize=8;curved=1;exitX=0.5;exitY=1;exitDx=0;exitDy=0;" edge="1" parent="1" source="lDroLdev7tO085EFxqB0-6">
          <mxGeometry width="50" height="50" relative="1" as="geometry">
            <mxPoint x="535" y="580" as="sourcePoint" />
            <mxPoint x="670" y="560" as="targetPoint" />
          </mxGeometry>
        </mxCell>
        <mxCell id="lDroLdev7tO085EFxqB0-8" value="&lt;span style=&quot;font-size: 18px;&quot;&gt;驗證&lt;/span&gt;&lt;div&gt;&lt;span style=&quot;font-size: 18px;&quot;&gt;帳號密碼&lt;/span&gt;&lt;/div&gt;" style="html=1;align=center;verticalAlign=top;rounded=1;absoluteArcSize=1;arcSize=10;dashed=0;whiteSpace=wrap;" vertex="1" parent="1">
          <mxGeometry x="610" y="560" width="120" height="55" as="geometry" />
        </mxCell>
        <mxCell id="lDroLdev7tO085EFxqB0-9" value="" style="endArrow=classic;html=1;rounded=0;fontSize=12;startSize=8;endSize=8;curved=1;exitX=1;exitY=0.5;exitDx=0;exitDy=0;entryX=0;entryY=0.5;entryDx=0;entryDy=0;" edge="1" parent="1" source="lDroLdev7tO085EFxqB0-8" target="lDroLdev7tO085EFxqB0-10">
          <mxGeometry width="50" height="50" relative="1" as="geometry">
            <mxPoint x="730" y="640" as="sourcePoint" />
            <mxPoint x="670" y="660" as="targetPoint" />
          </mxGeometry>
        </mxCell>
        <mxCell id="lDroLdev7tO085EFxqB0-10" value="" style="rhombus;" vertex="1" parent="1">
          <mxGeometry x="790" y="572.5" width="30" height="30" as="geometry" />
        </mxCell>
        <mxCell id="lDroLdev7tO085EFxqB0-11" value="" style="endArrow=classic;html=1;rounded=0;fontSize=12;startSize=8;endSize=8;curved=1;exitX=0.5;exitY=1;exitDx=0;exitDy=0;" edge="1" parent="1" source="lDroLdev7tO085EFxqB0-10">
          <mxGeometry width="50" height="50" relative="1" as="geometry">
            <mxPoint x="730" y="710" as="sourcePoint" />
            <mxPoint x="805" y="660" as="targetPoint" />
          </mxGeometry>
        </mxCell>
        <mxCell id="lDroLdev7tO085EFxqB0-12" value="[正確]" style="edgeLabel;html=1;align=center;verticalAlign=middle;resizable=0;points=[];fontSize=12;" connectable="0" vertex="1" parent="lDroLdev7tO085EFxqB0-11">
          <mxGeometry x="0.0781" y="-1" relative="1" as="geometry">
            <mxPoint as="offset" />
          </mxGeometry>
        </mxCell>
        <mxCell id="lDroLdev7tO085EFxqB0-13" value="&lt;span style=&quot;font-size: 18px;&quot;&gt;登入成功&lt;/span&gt;" style="html=1;align=center;verticalAlign=top;rounded=1;absoluteArcSize=1;arcSize=10;dashed=0;whiteSpace=wrap;" vertex="1" parent="1">
          <mxGeometry x="750" y="660" width="120" height="42.5" as="geometry" />
        </mxCell>
        <mxCell id="lDroLdev7tO085EFxqB0-14" value="" style="endArrow=classic;html=1;rounded=0;fontSize=12;startSize=8;endSize=8;curved=1;exitX=0.5;exitY=1;exitDx=0;exitDy=0;" edge="1" parent="1" source="lDroLdev7tO085EFxqB0-13">
          <mxGeometry width="50" height="50" relative="1" as="geometry">
            <mxPoint x="690" y="680" as="sourcePoint" />
            <mxPoint x="810" y="740" as="targetPoint" />
          </mxGeometry>
        </mxCell>
        <mxCell id="lDroLdev7tO085EFxqB0-15" value="" style="ellipse;html=1;shape=endState;fillColor=strokeColor;" vertex="1" parent="1">
          <mxGeometry x="795" y="740" width="30" height="30" as="geometry" />
        </mxCell>
        <mxCell id="lDroLdev7tO085EFxqB0-19" value="" style="edgeStyle=segmentEdgeStyle;endArrow=classic;html=1;curved=0;rounded=0;endSize=8;startSize=8;sourcePerimeterSpacing=0;targetPerimeterSpacing=0;fontSize=12;exitX=0.5;exitY=0;exitDx=0;exitDy=0;entryX=1;entryY=0.5;entryDx=0;entryDy=0;" edge="1" parent="1" source="lDroLdev7tO085EFxqB0-10" target="lDroLdev7tO085EFxqB0-6">
          <mxGeometry width="140" relative="1" as="geometry">
            <mxPoint x="810" y="530" as="sourcePoint" />
            <mxPoint x="950" y="590" as="targetPoint" />
            <Array as="points">
              <mxPoint x="805" y="485" />
            </Array>
          </mxGeometry>
        </mxCell>
        <mxCell id="lDroLdev7tO085EFxqB0-20" value="[錯誤]" style="edgeLabel;html=1;align=center;verticalAlign=middle;resizable=0;points=[];fontSize=12;" connectable="0" vertex="1" parent="lDroLdev7tO085EFxqB0-19">
          <mxGeometry x="-0.2451" y="1" relative="1" as="geometry">
            <mxPoint as="offset" />
          </mxGeometry>
        </mxCell>
        <mxCell id="7tyC4IZNjm4oJ5kgcfkj-1" value="&lt;div&gt;以Google帳號登入&lt;/div&gt;" style="shape=note2;boundedLbl=1;whiteSpace=wrap;html=1;size=15;verticalAlign=top;align=center;" vertex="1" parent="1">
          <mxGeometry x="610" y="379.5" width="120" height="45.5" as="geometry" />
        </mxCell>
        <mxCell id="7tyC4IZNjm4oJ5kgcfkj-2" value="" style="endArrow=none;dashed=1;html=1;rounded=0;fontSize=12;startSize=8;endSize=8;curved=1;entryX=0.5;entryY=1;entryDx=0;entryDy=0;entryPerimeter=0;" edge="1" parent="1" target="7tyC4IZNjm4oJ5kgcfkj-1">
          <mxGeometry width="50" height="50" relative="1" as="geometry">
            <mxPoint x="670" y="457.5" as="sourcePoint" />
            <mxPoint x="720" y="407.5" as="targetPoint" />
          </mxGeometry>
        </mxCell>
      </root>
    </mxGraphModel>
  </diagram>
  <diagram name="使用者註冊活動圖" id="xk3s4cjPioBTT8p6njSb">
    <mxGraphModel grid="1" page="1" gridSize="10" guides="1" tooltips="1" connect="1" arrows="1" fold="1" pageScale="1" pageWidth="1169" pageHeight="826" background="none" math="0" shadow="0">
      <root>
        <mxCell id="yRLAEtPfdezK3DC8_HjQ-0" />
        <mxCell id="yRLAEtPfdezK3DC8_HjQ-1" parent="yRLAEtPfdezK3DC8_HjQ-0" />
        <mxCell id="yRLAEtPfdezK3DC8_HjQ-2" value="" style="ellipse;fillColor=strokeColor;html=1;" vertex="1" parent="yRLAEtPfdezK3DC8_HjQ-1">
          <mxGeometry x="490" y="200" width="30" height="30" as="geometry" />
        </mxCell>
        <mxCell id="yRLAEtPfdezK3DC8_HjQ-3" value="" style="endArrow=classic;html=1;rounded=0;fontSize=12;startSize=8;endSize=8;curved=1;exitX=0.5;exitY=1;exitDx=0;exitDy=0;" edge="1" parent="yRLAEtPfdezK3DC8_HjQ-1" source="yRLAEtPfdezK3DC8_HjQ-2">
          <mxGeometry width="50" height="50" relative="1" as="geometry">
            <mxPoint x="530" y="590" as="sourcePoint" />
            <mxPoint x="505" y="270" as="targetPoint" />
          </mxGeometry>
        </mxCell>
        <mxCell id="yRLAEtPfdezK3DC8_HjQ-4" value="&lt;span style=&quot;font-size: 18px;&quot;&gt;進入&lt;/span&gt;&lt;div&gt;&lt;span style=&quot;font-size: 18px;&quot;&gt;註冊畫面&lt;/span&gt;&lt;/div&gt;" style="html=1;align=center;verticalAlign=top;rounded=1;absoluteArcSize=1;arcSize=10;dashed=0;whiteSpace=wrap;" vertex="1" parent="yRLAEtPfdezK3DC8_HjQ-1">
          <mxGeometry x="450" y="270" width="110" height="50" as="geometry" />
        </mxCell>
        <mxCell id="yRLAEtPfdezK3DC8_HjQ-5" value="" style="endArrow=classic;html=1;rounded=0;fontSize=12;startSize=8;endSize=8;curved=1;exitX=0.5;exitY=1;exitDx=0;exitDy=0;" edge="1" parent="yRLAEtPfdezK3DC8_HjQ-1" source="yRLAEtPfdezK3DC8_HjQ-4">
          <mxGeometry width="50" height="50" relative="1" as="geometry">
            <mxPoint x="530" y="590" as="sourcePoint" />
            <mxPoint x="505" y="370" as="targetPoint" />
          </mxGeometry>
        </mxCell>
        <mxCell id="yRLAEtPfdezK3DC8_HjQ-8" value="&lt;span style=&quot;font-size: 18px;&quot;&gt;輸入&lt;/span&gt;&lt;div&gt;&lt;span style=&quot;font-size: 18px;&quot;&gt;會員資料&lt;/span&gt;&lt;/div&gt;" style="html=1;align=center;verticalAlign=top;rounded=1;absoluteArcSize=1;arcSize=10;dashed=0;whiteSpace=wrap;" vertex="1" parent="yRLAEtPfdezK3DC8_HjQ-1">
          <mxGeometry x="450" y="370" width="110" height="55" as="geometry" />
        </mxCell>
        <mxCell id="yRLAEtPfdezK3DC8_HjQ-12" value="&lt;font style=&quot;font-size: 22px;&quot;&gt;使用者註冊&lt;/font&gt;" style="text;html=1;align=center;verticalAlign=middle;resizable=0;points=[];autosize=1;strokeColor=none;fillColor=none;fontSize=16;" vertex="1" parent="yRLAEtPfdezK3DC8_HjQ-1">
          <mxGeometry x="450" y="150" width="130" height="40" as="geometry" />
        </mxCell>
        <mxCell id="yRLAEtPfdezK3DC8_HjQ-13" value="" style="endArrow=none;dashed=1;html=1;dashPattern=1 3;strokeWidth=2;rounded=0;fontSize=12;startSize=8;endSize=8;curved=1;entryX=1;entryY=0.5;entryDx=0;entryDy=0;exitX=0;exitY=0.5;exitDx=0;exitDy=0;exitPerimeter=0;" edge="1" parent="yRLAEtPfdezK3DC8_HjQ-1" source="yRLAEtPfdezK3DC8_HjQ-14" target="yRLAEtPfdezK3DC8_HjQ-8">
          <mxGeometry width="50" height="50" relative="1" as="geometry">
            <mxPoint x="570" y="540" as="sourcePoint" />
            <mxPoint x="570" y="490" as="targetPoint" />
          </mxGeometry>
        </mxCell>
        <mxCell id="yRLAEtPfdezK3DC8_HjQ-14" value="&lt;div&gt;使用者名稱&lt;/div&gt;信箱(帳號)&lt;div&gt;密碼&lt;/div&gt;" style="shape=note2;boundedLbl=1;whiteSpace=wrap;html=1;size=18;verticalAlign=top;align=center;" vertex="1" parent="yRLAEtPfdezK3DC8_HjQ-1">
          <mxGeometry x="640" y="357.5" width="120" height="80" as="geometry" />
        </mxCell>
        <mxCell id="yRLAEtPfdezK3DC8_HjQ-15" value="" style="endArrow=classic;html=1;rounded=0;fontSize=12;startSize=8;endSize=8;curved=1;exitX=0.5;exitY=1;exitDx=0;exitDy=0;entryX=0.5;entryY=0;entryDx=0;entryDy=0;" edge="1" parent="yRLAEtPfdezK3DC8_HjQ-1" source="yRLAEtPfdezK3DC8_HjQ-8" target="yRLAEtPfdezK3DC8_HjQ-16">
          <mxGeometry width="50" height="50" relative="1" as="geometry">
            <mxPoint x="370" y="570" as="sourcePoint" />
            <mxPoint x="335" y="550" as="targetPoint" />
          </mxGeometry>
        </mxCell>
        <mxCell id="yRLAEtPfdezK3DC8_HjQ-16" value="&lt;span style=&quot;font-size: 18px;&quot;&gt;驗證會員資料&lt;/span&gt;" style="html=1;align=center;verticalAlign=top;rounded=1;absoluteArcSize=1;arcSize=10;dashed=0;whiteSpace=wrap;" vertex="1" parent="yRLAEtPfdezK3DC8_HjQ-1">
          <mxGeometry x="450" y="500" width="110" height="40" as="geometry" />
        </mxCell>
        <mxCell id="yRLAEtPfdezK3DC8_HjQ-17" value="" style="endArrow=classic;html=1;rounded=0;fontSize=12;startSize=8;endSize=8;curved=1;exitX=0.5;exitY=1;exitDx=0;exitDy=0;entryX=0.5;entryY=0;entryDx=0;entryDy=0;" edge="1" parent="yRLAEtPfdezK3DC8_HjQ-1" source="yRLAEtPfdezK3DC8_HjQ-16" target="yRLAEtPfdezK3DC8_HjQ-18">
          <mxGeometry width="50" height="50" relative="1" as="geometry">
            <mxPoint x="370" y="670" as="sourcePoint" />
            <mxPoint x="335" y="630" as="targetPoint" />
          </mxGeometry>
        </mxCell>
        <mxCell id="yRLAEtPfdezK3DC8_HjQ-18" value="" style="rhombus;" vertex="1" parent="yRLAEtPfdezK3DC8_HjQ-1">
          <mxGeometry x="490" y="580" width="30" height="30" as="geometry" />
        </mxCell>
        <mxCell id="yRLAEtPfdezK3DC8_HjQ-21" value="" style="endArrow=classic;html=1;rounded=0;fontSize=12;startSize=8;endSize=8;curved=1;exitX=0.5;exitY=1;exitDx=0;exitDy=0;entryX=0.5;entryY=0;entryDx=0;entryDy=0;" edge="1" parent="yRLAEtPfdezK3DC8_HjQ-1" source="yRLAEtPfdezK3DC8_HjQ-18" target="yRLAEtPfdezK3DC8_HjQ-25">
          <mxGeometry relative="1" as="geometry">
            <mxPoint x="340" y="690" as="sourcePoint" />
            <mxPoint x="335" y="720" as="targetPoint" />
          </mxGeometry>
        </mxCell>
        <mxCell id="yRLAEtPfdezK3DC8_HjQ-22" value="[正確]" style="edgeLabel;resizable=0;html=1;fontSize=12;;align=center;verticalAlign=middle;" connectable="0" vertex="1" parent="yRLAEtPfdezK3DC8_HjQ-21">
          <mxGeometry relative="1" as="geometry" />
        </mxCell>
        <mxCell id="yRLAEtPfdezK3DC8_HjQ-23" value="" style="edgeStyle=segmentEdgeStyle;endArrow=classic;html=1;curved=0;rounded=0;endSize=8;startSize=8;sourcePerimeterSpacing=0;targetPerimeterSpacing=0;fontSize=12;exitX=0;exitY=0.5;exitDx=0;exitDy=0;" edge="1" parent="yRLAEtPfdezK3DC8_HjQ-1" source="yRLAEtPfdezK3DC8_HjQ-18">
          <mxGeometry width="140" relative="1" as="geometry">
            <mxPoint x="460" y="574.5" as="sourcePoint" />
            <mxPoint x="450" y="400" as="targetPoint" />
            <Array as="points">
              <mxPoint x="330" y="595" />
              <mxPoint x="330" y="400" />
              <mxPoint x="450" y="400" />
            </Array>
          </mxGeometry>
        </mxCell>
        <mxCell id="yRLAEtPfdezK3DC8_HjQ-24" value="[錯誤]" style="edgeLabel;html=1;align=center;verticalAlign=middle;resizable=0;points=[];fontSize=12;" vertex="1" connectable="0" parent="yRLAEtPfdezK3DC8_HjQ-23">
          <mxGeometry x="-0.6817" y="1" relative="1" as="geometry">
            <mxPoint as="offset" />
          </mxGeometry>
        </mxCell>
        <mxCell id="yRLAEtPfdezK3DC8_HjQ-25" value="&lt;span style=&quot;font-size: 18px;&quot;&gt;註冊成功&lt;/span&gt;" style="html=1;align=center;verticalAlign=top;rounded=1;absoluteArcSize=1;arcSize=10;dashed=0;whiteSpace=wrap;" vertex="1" parent="yRLAEtPfdezK3DC8_HjQ-1">
          <mxGeometry x="450" y="690" width="110" height="40" as="geometry" />
        </mxCell>
        <mxCell id="RFe_h0FO9p7eM0ZmH73--0" value="" style="endArrow=classic;html=1;rounded=0;fontSize=12;startSize=8;endSize=8;curved=1;" edge="1" parent="yRLAEtPfdezK3DC8_HjQ-1">
          <mxGeometry width="50" height="50" relative="1" as="geometry">
            <mxPoint x="560" y="710" as="sourcePoint" />
            <mxPoint x="610" y="710" as="targetPoint" />
          </mxGeometry>
        </mxCell>
        <mxCell id="RFe_h0FO9p7eM0ZmH73--1" value="&lt;span style=&quot;font-size: 18px;&quot;&gt;進入登入畫面&lt;/span&gt;" style="html=1;align=center;verticalAlign=top;rounded=1;absoluteArcSize=1;arcSize=10;dashed=0;whiteSpace=wrap;" vertex="1" parent="yRLAEtPfdezK3DC8_HjQ-1">
          <mxGeometry x="610" y="690" width="120" height="40" as="geometry" />
        </mxCell>
        <mxCell id="RFe_h0FO9p7eM0ZmH73--2" value="" style="endArrow=classic;html=1;rounded=0;fontSize=12;startSize=8;endSize=8;curved=1;" edge="1" parent="yRLAEtPfdezK3DC8_HjQ-1">
          <mxGeometry width="50" height="50" relative="1" as="geometry">
            <mxPoint x="730" y="710" as="sourcePoint" />
            <mxPoint x="780" y="710" as="targetPoint" />
          </mxGeometry>
        </mxCell>
        <mxCell id="RFe_h0FO9p7eM0ZmH73--3" value="" style="ellipse;html=1;shape=endState;fillColor=strokeColor;" vertex="1" parent="yRLAEtPfdezK3DC8_HjQ-1">
          <mxGeometry x="780" y="695" width="30" height="30" as="geometry" />
        </mxCell>
      </root>
    </mxGraphModel>
  </diagram>
  <diagram name="會員資料管理活動圖(舊)" id="3ExUm-BnUb8cGhraD7Pe">
    <mxGraphModel grid="1" page="1" gridSize="10" guides="1" tooltips="1" connect="1" arrows="1" fold="1" pageScale="1" pageWidth="1169" pageHeight="826" background="none" math="0" shadow="0">
      <root>
        <mxCell id="rX8pZbIenOY1R3h1Qlhb-0" />
        <mxCell id="rX8pZbIenOY1R3h1Qlhb-1" parent="rX8pZbIenOY1R3h1Qlhb-0" />
        <mxCell id="rX8pZbIenOY1R3h1Qlhb-2" value="" style="ellipse;fillColor=strokeColor;html=1;" vertex="1" parent="rX8pZbIenOY1R3h1Qlhb-1">
          <mxGeometry x="490" y="200" width="30" height="30" as="geometry" />
        </mxCell>
        <mxCell id="rX8pZbIenOY1R3h1Qlhb-3" value="" style="endArrow=classic;html=1;rounded=0;fontSize=12;startSize=8;endSize=8;curved=1;exitX=0.5;exitY=1;exitDx=0;exitDy=0;" edge="1" parent="rX8pZbIenOY1R3h1Qlhb-1" source="rX8pZbIenOY1R3h1Qlhb-2">
          <mxGeometry width="50" height="50" relative="1" as="geometry">
            <mxPoint x="530" y="590" as="sourcePoint" />
            <mxPoint x="505" y="270" as="targetPoint" />
          </mxGeometry>
        </mxCell>
        <mxCell id="rX8pZbIenOY1R3h1Qlhb-4" value="&lt;span style=&quot;font-size: 18px;&quot;&gt;進入&lt;/span&gt;&lt;div&gt;&lt;span style=&quot;font-size: 18px;&quot;&gt;會員專區畫面&lt;/span&gt;&lt;/div&gt;" style="html=1;align=center;verticalAlign=top;rounded=1;absoluteArcSize=1;arcSize=10;dashed=0;whiteSpace=wrap;" vertex="1" parent="rX8pZbIenOY1R3h1Qlhb-1">
          <mxGeometry x="440" y="270" width="130" height="50" as="geometry" />
        </mxCell>
        <mxCell id="rX8pZbIenOY1R3h1Qlhb-5" value="" style="endArrow=classic;html=1;rounded=0;fontSize=12;startSize=8;endSize=8;curved=1;exitX=0.5;exitY=1;exitDx=0;exitDy=0;" edge="1" parent="rX8pZbIenOY1R3h1Qlhb-1" source="rX8pZbIenOY1R3h1Qlhb-4">
          <mxGeometry width="50" height="50" relative="1" as="geometry">
            <mxPoint x="530" y="590" as="sourcePoint" />
            <mxPoint x="505" y="370" as="targetPoint" />
          </mxGeometry>
        </mxCell>
        <mxCell id="rX8pZbIenOY1R3h1Qlhb-6" value="&lt;span style=&quot;font-size: 18px;&quot;&gt;選擇&lt;/span&gt;&lt;div&gt;&lt;span style=&quot;font-size: 18px;&quot;&gt;會員資料&lt;/span&gt;&lt;/div&gt;" style="html=1;align=center;verticalAlign=top;rounded=1;absoluteArcSize=1;arcSize=10;dashed=0;whiteSpace=wrap;" vertex="1" parent="rX8pZbIenOY1R3h1Qlhb-1">
          <mxGeometry x="450" y="370" width="110" height="55" as="geometry" />
        </mxCell>
        <mxCell id="rX8pZbIenOY1R3h1Qlhb-7" value="&lt;font style=&quot;font-size: 22px;&quot;&gt;會員資料管理活動圖&lt;/font&gt;" style="text;html=1;align=center;verticalAlign=middle;resizable=0;points=[];autosize=1;strokeColor=none;fillColor=none;fontSize=16;" vertex="1" parent="rX8pZbIenOY1R3h1Qlhb-1">
          <mxGeometry x="405" y="150" width="220" height="40" as="geometry" />
        </mxCell>
        <mxCell id="rX8pZbIenOY1R3h1Qlhb-10" value="" style="endArrow=classic;html=1;rounded=0;fontSize=12;startSize=8;endSize=8;curved=1;exitX=0.5;exitY=1;exitDx=0;exitDy=0;" edge="1" parent="rX8pZbIenOY1R3h1Qlhb-1" source="rX8pZbIenOY1R3h1Qlhb-6">
          <mxGeometry width="50" height="50" relative="1" as="geometry">
            <mxPoint x="370" y="570" as="sourcePoint" />
            <mxPoint x="505" y="480" as="targetPoint" />
          </mxGeometry>
        </mxCell>
        <mxCell id="rX8pZbIenOY1R3h1Qlhb-11" value="&lt;span style=&quot;font-size: 18px;&quot;&gt;選擇偏好設定或資料修改&lt;/span&gt;" style="html=1;align=center;verticalAlign=top;rounded=1;absoluteArcSize=1;arcSize=10;dashed=0;whiteSpace=wrap;" vertex="1" parent="rX8pZbIenOY1R3h1Qlhb-1">
          <mxGeometry x="450" y="480" width="110" height="50" as="geometry" />
        </mxCell>
        <mxCell id="rX8pZbIenOY1R3h1Qlhb-12" value="" style="endArrow=classic;html=1;rounded=0;fontSize=12;startSize=8;endSize=8;curved=1;exitX=0.5;exitY=1;exitDx=0;exitDy=0;entryX=0.5;entryY=0;entryDx=0;entryDy=0;" edge="1" parent="rX8pZbIenOY1R3h1Qlhb-1" source="rX8pZbIenOY1R3h1Qlhb-11" target="rX8pZbIenOY1R3h1Qlhb-13">
          <mxGeometry width="50" height="50" relative="1" as="geometry">
            <mxPoint x="370" y="670" as="sourcePoint" />
            <mxPoint x="335" y="630" as="targetPoint" />
          </mxGeometry>
        </mxCell>
        <mxCell id="rX8pZbIenOY1R3h1Qlhb-13" value="" style="rhombus;" vertex="1" parent="rX8pZbIenOY1R3h1Qlhb-1">
          <mxGeometry x="490" y="580" width="30" height="30" as="geometry" />
        </mxCell>
        <mxCell id="rX8pZbIenOY1R3h1Qlhb-14" value="" style="endArrow=classic;html=1;rounded=0;fontSize=12;startSize=8;endSize=8;curved=1;exitX=1;exitY=0.5;exitDx=0;exitDy=0;entryX=0.002;entryY=0.5;entryDx=0;entryDy=0;entryPerimeter=0;" edge="1" parent="rX8pZbIenOY1R3h1Qlhb-1" source="rX8pZbIenOY1R3h1Qlhb-13" target="rX8pZbIenOY1R3h1Qlhb-18">
          <mxGeometry relative="1" as="geometry">
            <mxPoint x="340" y="690" as="sourcePoint" />
            <mxPoint x="335" y="720" as="targetPoint" />
          </mxGeometry>
        </mxCell>
        <mxCell id="rX8pZbIenOY1R3h1Qlhb-15" value="[資料修改]" style="edgeLabel;resizable=0;html=1;fontSize=12;;align=center;verticalAlign=middle;" connectable="0" vertex="1" parent="rX8pZbIenOY1R3h1Qlhb-14">
          <mxGeometry relative="1" as="geometry" />
        </mxCell>
        <mxCell id="rX8pZbIenOY1R3h1Qlhb-18" value="&lt;span style=&quot;font-size: 18px;&quot;&gt;輸入修改&lt;/span&gt;&lt;div&gt;&lt;span style=&quot;font-size: 18px;&quot;&gt;會員資料&lt;/span&gt;&lt;/div&gt;" style="html=1;align=center;verticalAlign=top;rounded=1;absoluteArcSize=1;arcSize=10;dashed=0;whiteSpace=wrap;" vertex="1" parent="rX8pZbIenOY1R3h1Qlhb-1">
          <mxGeometry x="625" y="567.5" width="110" height="55" as="geometry" />
        </mxCell>
        <mxCell id="rX8pZbIenOY1R3h1Qlhb-19" value="" style="endArrow=classic;html=1;rounded=0;fontSize=12;startSize=8;endSize=8;curved=1;exitX=0;exitY=0.5;exitDx=0;exitDy=0;entryX=1;entryY=0.5;entryDx=0;entryDy=0;" edge="1" parent="rX8pZbIenOY1R3h1Qlhb-1" source="rX8pZbIenOY1R3h1Qlhb-13" target="rj2oplYF1u2NoR8VHbZl-3">
          <mxGeometry width="50" height="50" relative="1" as="geometry">
            <mxPoint x="390" y="630" as="sourcePoint" />
            <mxPoint x="420" y="595" as="targetPoint" />
          </mxGeometry>
        </mxCell>
        <mxCell id="rj2oplYF1u2NoR8VHbZl-0" value="[偏好設定]" style="edgeLabel;html=1;align=center;verticalAlign=middle;resizable=0;points=[];fontSize=12;" connectable="0" vertex="1" parent="rX8pZbIenOY1R3h1Qlhb-19">
          <mxGeometry x="0.0333" y="1" relative="1" as="geometry">
            <mxPoint as="offset" />
          </mxGeometry>
        </mxCell>
        <mxCell id="rX8pZbIenOY1R3h1Qlhb-20" value="&lt;span style=&quot;font-size: 18px;&quot;&gt;儲存修改&lt;/span&gt;&lt;div&gt;&lt;span style=&quot;font-size: 18px;&quot;&gt;會員資料&lt;/span&gt;&lt;/div&gt;" style="html=1;align=center;verticalAlign=top;rounded=1;absoluteArcSize=1;arcSize=10;dashed=0;whiteSpace=wrap;" vertex="1" parent="rX8pZbIenOY1R3h1Qlhb-1">
          <mxGeometry x="785" y="567.5" width="120" height="55" as="geometry" />
        </mxCell>
        <mxCell id="rX8pZbIenOY1R3h1Qlhb-21" value="" style="endArrow=classic;html=1;rounded=0;fontSize=12;startSize=8;endSize=8;curved=1;" edge="1" parent="rX8pZbIenOY1R3h1Qlhb-1">
          <mxGeometry width="50" height="50" relative="1" as="geometry">
            <mxPoint x="735" y="594.41" as="sourcePoint" />
            <mxPoint x="785" y="594.41" as="targetPoint" />
          </mxGeometry>
        </mxCell>
        <mxCell id="rX8pZbIenOY1R3h1Qlhb-22" value="" style="ellipse;html=1;shape=endState;fillColor=strokeColor;" vertex="1" parent="rX8pZbIenOY1R3h1Qlhb-1">
          <mxGeometry x="830" y="690" width="30" height="30" as="geometry" />
        </mxCell>
        <mxCell id="rj2oplYF1u2NoR8VHbZl-3" value="&lt;span style=&quot;font-size: 18px;&quot;&gt;修改&lt;/span&gt;&lt;br&gt;&lt;div&gt;&lt;span style=&quot;font-size: 18px;&quot;&gt;偏好設定&lt;/span&gt;&lt;/div&gt;" style="html=1;align=center;verticalAlign=top;rounded=1;absoluteArcSize=1;arcSize=10;dashed=0;whiteSpace=wrap;" vertex="1" parent="rX8pZbIenOY1R3h1Qlhb-1">
          <mxGeometry x="300" y="567.5" width="110" height="55" as="geometry" />
        </mxCell>
        <mxCell id="dKJUZ6QDWuC0KShFE0LQ-0" value="" style="endArrow=classic;html=1;rounded=0;fontSize=12;startSize=8;endSize=8;curved=1;exitX=0.5;exitY=1;exitDx=0;exitDy=0;entryX=0.5;entryY=0;entryDx=0;entryDy=0;" edge="1" parent="rX8pZbIenOY1R3h1Qlhb-1" target="dKJUZ6QDWuC0KShFE0LQ-1">
          <mxGeometry width="50" height="50" relative="1" as="geometry">
            <mxPoint x="355.0000000000001" y="711.25" as="sourcePoint" />
            <mxPoint x="365" y="758.75" as="targetPoint" />
          </mxGeometry>
        </mxCell>
        <mxCell id="dKJUZ6QDWuC0KShFE0LQ-1" value="" style="ellipse;html=1;shape=endState;fillColor=strokeColor;" vertex="1" parent="rX8pZbIenOY1R3h1Qlhb-1">
          <mxGeometry x="340" y="758.75" width="30" height="30" as="geometry" />
        </mxCell>
        <mxCell id="xNsa5wLNgQQ8Uc7eJUez-0" value="" style="endArrow=classic;html=1;rounded=0;fontSize=12;startSize=8;endSize=8;curved=1;exitX=0.5;exitY=1;exitDx=0;exitDy=0;" edge="1" parent="rX8pZbIenOY1R3h1Qlhb-1" source="rX8pZbIenOY1R3h1Qlhb-20">
          <mxGeometry width="50" height="50" relative="1" as="geometry">
            <mxPoint x="845" y="540" as="sourcePoint" />
            <mxPoint x="845" y="690" as="targetPoint" />
          </mxGeometry>
        </mxCell>
        <mxCell id="je0x6tEb1LZamGHhObSp-0" value="" style="endArrow=classic;html=1;rounded=0;fontSize=12;startSize=8;endSize=8;curved=1;exitX=0.5;exitY=1;exitDx=0;exitDy=0;" edge="1" parent="rX8pZbIenOY1R3h1Qlhb-1" source="rj2oplYF1u2NoR8VHbZl-3">
          <mxGeometry width="50" height="50" relative="1" as="geometry">
            <mxPoint x="310" y="710" as="sourcePoint" />
            <mxPoint x="355" y="660" as="targetPoint" />
          </mxGeometry>
        </mxCell>
        <mxCell id="je0x6tEb1LZamGHhObSp-1" value="&lt;span style=&quot;font-size: 18px;&quot;&gt;儲存&lt;/span&gt;&lt;br&gt;&lt;div&gt;&lt;span style=&quot;font-size: 18px;&quot;&gt;偏好設定&lt;/span&gt;&lt;/div&gt;" style="html=1;align=center;verticalAlign=top;rounded=1;absoluteArcSize=1;arcSize=10;dashed=0;whiteSpace=wrap;" vertex="1" parent="rX8pZbIenOY1R3h1Qlhb-1">
          <mxGeometry x="300" y="660" width="110" height="55" as="geometry" />
        </mxCell>
      </root>
    </mxGraphModel>
  </diagram>
  <diagram name="會員資料管理活動圖(新)" id="vpuhu2v3uK7wxc5PGXiK">
    <mxGraphModel grid="1" page="1" gridSize="10" guides="1" tooltips="1" connect="1" arrows="1" fold="1" pageScale="1" pageWidth="1169" pageHeight="826" background="none" math="0" shadow="0">
      <root>
        <mxCell id="TLdfgpJI8PAug8Pvfu6M-0" />
        <mxCell id="TLdfgpJI8PAug8Pvfu6M-1" parent="TLdfgpJI8PAug8Pvfu6M-0" />
        <mxCell id="ZNoXeUJ4BuYTAEHcbh8J-0" style="edgeStyle=orthogonalEdgeStyle;rounded=0;orthogonalLoop=1;jettySize=auto;html=1;entryX=0.5;entryY=0;entryDx=0;entryDy=0;" edge="1" parent="TLdfgpJI8PAug8Pvfu6M-1" source="ZNoXeUJ4BuYTAEHcbh8J-1" target="ZNoXeUJ4BuYTAEHcbh8J-16">
          <mxGeometry relative="1" as="geometry" />
        </mxCell>
        <mxCell id="ZNoXeUJ4BuYTAEHcbh8J-1" value="進入會員專區頁面" style="rounded=1;whiteSpace=wrap;html=1;" vertex="1" parent="TLdfgpJI8PAug8Pvfu6M-1">
          <mxGeometry x="-3152" y="119.5" width="120" height="31" as="geometry" />
        </mxCell>
        <mxCell id="ZNoXeUJ4BuYTAEHcbh8J-2" style="edgeStyle=orthogonalEdgeStyle;rounded=0;orthogonalLoop=1;jettySize=auto;html=1;exitX=0.5;exitY=1;exitDx=0;exitDy=0;" edge="1" parent="TLdfgpJI8PAug8Pvfu6M-1" source="ZNoXeUJ4BuYTAEHcbh8J-3" target="ZNoXeUJ4BuYTAEHcbh8J-1">
          <mxGeometry relative="1" as="geometry" />
        </mxCell>
        <mxCell id="ZNoXeUJ4BuYTAEHcbh8J-3" value="" style="ellipse;whiteSpace=wrap;html=1;aspect=fixed;fillColor=#000000;" vertex="1" parent="TLdfgpJI8PAug8Pvfu6M-1">
          <mxGeometry x="-3102" y="80" width="20" height="20" as="geometry" />
        </mxCell>
        <mxCell id="ZNoXeUJ4BuYTAEHcbh8J-4" value="" style="ellipse;html=1;shape=endState;fillColor=#000000;strokeColor=#000000;" vertex="1" parent="TLdfgpJI8PAug8Pvfu6M-1">
          <mxGeometry x="-3032" y="618.5" width="30" height="30" as="geometry" />
        </mxCell>
        <mxCell id="ZNoXeUJ4BuYTAEHcbh8J-5" value="輸入會員資料" style="rounded=1;whiteSpace=wrap;html=1;" vertex="1" parent="TLdfgpJI8PAug8Pvfu6M-1">
          <mxGeometry x="-3152" y="240" width="120" height="31" as="geometry" />
        </mxCell>
        <mxCell id="ZNoXeUJ4BuYTAEHcbh8J-6" style="edgeStyle=orthogonalEdgeStyle;rounded=0;orthogonalLoop=1;jettySize=auto;html=1;entryX=0.5;entryY=0;entryDx=0;entryDy=0;exitX=0.5;exitY=1;exitDx=0;exitDy=0;" edge="1" parent="TLdfgpJI8PAug8Pvfu6M-1" target="ZNoXeUJ4BuYTAEHcbh8J-18">
          <mxGeometry relative="1" as="geometry">
            <mxPoint x="-2827" y="374.5" as="sourcePoint" />
            <mxPoint x="-3014" y="558.5" as="targetPoint" />
            <Array as="points">
              <mxPoint x="-2827" y="510" />
              <mxPoint x="-3017" y="510" />
              <mxPoint x="-3017" y="560" />
              <mxPoint x="-3017" y="560" />
            </Array>
          </mxGeometry>
        </mxCell>
        <mxCell id="ZNoXeUJ4BuYTAEHcbh8J-7" value="" style="edgeStyle=orthogonalEdgeStyle;rounded=0;orthogonalLoop=1;jettySize=auto;html=1;" edge="1" parent="TLdfgpJI8PAug8Pvfu6M-1">
          <mxGeometry relative="1" as="geometry">
            <mxPoint x="-3092" y="271" as="sourcePoint" />
            <mxPoint x="-3092" y="300" as="targetPoint" />
          </mxGeometry>
        </mxCell>
        <mxCell id="ZNoXeUJ4BuYTAEHcbh8J-8" style="edgeStyle=orthogonalEdgeStyle;rounded=0;orthogonalLoop=1;jettySize=auto;html=1;entryX=0.5;entryY=0;entryDx=0;entryDy=0;exitX=0;exitY=0.5;exitDx=0;exitDy=0;" edge="1" parent="TLdfgpJI8PAug8Pvfu6M-1" source="ZNoXeUJ4BuYTAEHcbh8J-12" target="ZNoXeUJ4BuYTAEHcbh8J-14">
          <mxGeometry relative="1" as="geometry">
            <mxPoint x="-3092" y="360.9999999999999" as="targetPoint" />
          </mxGeometry>
        </mxCell>
        <mxCell id="ZNoXeUJ4BuYTAEHcbh8J-9" value="選擇偏好設定" style="edgeLabel;html=1;align=center;verticalAlign=middle;resizable=0;points=[];" connectable="0" vertex="1" parent="ZNoXeUJ4BuYTAEHcbh8J-8">
          <mxGeometry x="-0.3925" y="1" relative="1" as="geometry">
            <mxPoint x="-29" y="16" as="offset" />
          </mxGeometry>
        </mxCell>
        <mxCell id="ZNoXeUJ4BuYTAEHcbh8J-10" style="edgeStyle=orthogonalEdgeStyle;rounded=0;orthogonalLoop=1;jettySize=auto;html=1;entryX=0.5;entryY=0;entryDx=0;entryDy=0;" edge="1" parent="TLdfgpJI8PAug8Pvfu6M-1" source="ZNoXeUJ4BuYTAEHcbh8J-12">
          <mxGeometry relative="1" as="geometry">
            <Array as="points">
              <mxPoint x="-3020" y="309" />
            </Array>
            <mxPoint x="-3020" y="350" as="targetPoint" />
          </mxGeometry>
        </mxCell>
        <mxCell id="ZNoXeUJ4BuYTAEHcbh8J-11" value="選擇資料修改" style="edgeLabel;html=1;align=center;verticalAlign=middle;resizable=0;points=[];" connectable="0" vertex="1" parent="ZNoXeUJ4BuYTAEHcbh8J-10">
          <mxGeometry x="0.5932" y="-1" relative="1" as="geometry">
            <mxPoint x="1" y="-3" as="offset" />
          </mxGeometry>
        </mxCell>
        <mxCell id="ZNoXeUJ4BuYTAEHcbh8J-12" value="" style="rhombus;whiteSpace=wrap;html=1;" vertex="1" parent="TLdfgpJI8PAug8Pvfu6M-1">
          <mxGeometry x="-3107" y="300" width="30" height="18" as="geometry" />
        </mxCell>
        <mxCell id="ZNoXeUJ4BuYTAEHcbh8J-13" style="edgeStyle=orthogonalEdgeStyle;rounded=0;orthogonalLoop=1;jettySize=auto;html=1;entryX=0.5;entryY=0;entryDx=0;entryDy=0;exitX=0.5;exitY=1;exitDx=0;exitDy=0;" edge="1" parent="TLdfgpJI8PAug8Pvfu6M-1" target="ZNoXeUJ4BuYTAEHcbh8J-18">
          <mxGeometry relative="1" as="geometry">
            <mxPoint x="-3174" y="381" as="sourcePoint" />
            <mxPoint x="-3024" y="558.5" as="targetPoint" />
            <Array as="points">
              <mxPoint x="-3174" y="510" />
              <mxPoint x="-3017" y="510" />
            </Array>
          </mxGeometry>
        </mxCell>
        <mxCell id="ZNoXeUJ4BuYTAEHcbh8J-14" value="修改偏好設定" style="rounded=1;whiteSpace=wrap;html=1;" vertex="1" parent="TLdfgpJI8PAug8Pvfu6M-1">
          <mxGeometry x="-3227" y="350" width="120" height="31" as="geometry" />
        </mxCell>
        <mxCell id="ZNoXeUJ4BuYTAEHcbh8J-15" style="edgeStyle=orthogonalEdgeStyle;rounded=0;orthogonalLoop=1;jettySize=auto;html=1;entryX=0.5;entryY=0;entryDx=0;entryDy=0;" edge="1" parent="TLdfgpJI8PAug8Pvfu6M-1" source="ZNoXeUJ4BuYTAEHcbh8J-16" target="ZNoXeUJ4BuYTAEHcbh8J-5">
          <mxGeometry relative="1" as="geometry" />
        </mxCell>
        <mxCell id="ZNoXeUJ4BuYTAEHcbh8J-16" value="選擇會員資料" style="rounded=1;whiteSpace=wrap;html=1;" vertex="1" parent="TLdfgpJI8PAug8Pvfu6M-1">
          <mxGeometry x="-3152" y="180" width="120" height="31" as="geometry" />
        </mxCell>
        <mxCell id="ZNoXeUJ4BuYTAEHcbh8J-17" style="edgeStyle=orthogonalEdgeStyle;rounded=0;orthogonalLoop=1;jettySize=auto;html=1;entryX=0.5;entryY=0;entryDx=0;entryDy=0;" edge="1" parent="TLdfgpJI8PAug8Pvfu6M-1" source="ZNoXeUJ4BuYTAEHcbh8J-18" target="ZNoXeUJ4BuYTAEHcbh8J-4">
          <mxGeometry relative="1" as="geometry" />
        </mxCell>
        <mxCell id="ZNoXeUJ4BuYTAEHcbh8J-18" value="提示修改成功" style="rounded=1;whiteSpace=wrap;html=1;" vertex="1" parent="TLdfgpJI8PAug8Pvfu6M-1">
          <mxGeometry x="-3077" y="558.5" width="120" height="31" as="geometry" />
        </mxCell>
        <mxCell id="ZNoXeUJ4BuYTAEHcbh8J-19" value="" style="rhombus;whiteSpace=wrap;html=1;" vertex="1" parent="TLdfgpJI8PAug8Pvfu6M-1">
          <mxGeometry x="-3035" y="350" width="30" height="18" as="geometry" />
        </mxCell>
        <mxCell id="ZNoXeUJ4BuYTAEHcbh8J-20" value="" style="endArrow=classic;html=1;rounded=0;" edge="1" parent="TLdfgpJI8PAug8Pvfu6M-1">
          <mxGeometry width="50" height="50" relative="1" as="geometry">
            <mxPoint x="-3005" y="360" as="sourcePoint" />
            <mxPoint x="-2890" y="360" as="targetPoint" />
          </mxGeometry>
        </mxCell>
        <mxCell id="ZNoXeUJ4BuYTAEHcbh8J-21" value="選擇修改密碼" style="edgeLabel;html=1;align=center;verticalAlign=middle;resizable=0;points=[];" connectable="0" vertex="1" parent="ZNoXeUJ4BuYTAEHcbh8J-20">
          <mxGeometry x="-0.1992" y="-1" relative="1" as="geometry">
            <mxPoint as="offset" />
          </mxGeometry>
        </mxCell>
        <mxCell id="ZNoXeUJ4BuYTAEHcbh8J-22" value="修改密碼" style="rounded=1;whiteSpace=wrap;html=1;" vertex="1" parent="TLdfgpJI8PAug8Pvfu6M-1">
          <mxGeometry x="-2890" y="343.5" width="120" height="31" as="geometry" />
        </mxCell>
        <mxCell id="ZNoXeUJ4BuYTAEHcbh8J-23" value="" style="endArrow=classic;html=1;rounded=0;exitX=0.5;exitY=1;exitDx=0;exitDy=0;entryX=0.483;entryY=-0.033;entryDx=0;entryDy=0;entryPerimeter=0;" edge="1" parent="TLdfgpJI8PAug8Pvfu6M-1" source="ZNoXeUJ4BuYTAEHcbh8J-19" target="ZNoXeUJ4BuYTAEHcbh8J-25">
          <mxGeometry width="50" height="50" relative="1" as="geometry">
            <mxPoint x="-2970" y="330" as="sourcePoint" />
            <mxPoint x="-3020" y="400" as="targetPoint" />
          </mxGeometry>
        </mxCell>
        <mxCell id="ZNoXeUJ4BuYTAEHcbh8J-24" value="選擇修改個人資料" style="edgeLabel;html=1;align=center;verticalAlign=middle;resizable=0;points=[];" connectable="0" vertex="1" parent="ZNoXeUJ4BuYTAEHcbh8J-23">
          <mxGeometry x="-0.2328" y="1" relative="1" as="geometry">
            <mxPoint as="offset" />
          </mxGeometry>
        </mxCell>
        <mxCell id="ZNoXeUJ4BuYTAEHcbh8J-25" value="修改個人資料" style="rounded=1;whiteSpace=wrap;html=1;" vertex="1" parent="TLdfgpJI8PAug8Pvfu6M-1">
          <mxGeometry x="-3077" y="410" width="120" height="31" as="geometry" />
        </mxCell>
        <mxCell id="ZNoXeUJ4BuYTAEHcbh8J-26" value="" style="endArrow=none;html=1;rounded=0;" edge="1" parent="TLdfgpJI8PAug8Pvfu6M-1">
          <mxGeometry width="50" height="50" relative="1" as="geometry">
            <mxPoint x="-3017" y="510" as="sourcePoint" />
            <mxPoint x="-3017.03" y="441" as="targetPoint" />
          </mxGeometry>
        </mxCell>
        <mxCell id="YpJd_3Cgyfwp0f-dMHFb-0" value="&lt;span style=&quot;color: rgb(0, 0, 0); font-family: Helvetica; font-size: 22px; font-style: normal; font-variant-ligatures: normal; font-variant-caps: normal; font-weight: 400; letter-spacing: normal; orphans: 2; text-align: center; text-indent: 0px; text-transform: none; widows: 2; word-spacing: 0px; -webkit-text-stroke-width: 0px; white-space: nowrap; background-color: rgb(251, 251, 251); text-decoration-thickness: initial; text-decoration-style: initial; text-decoration-color: initial; display: inline !important; float: none;&quot;&gt;會員資料管理活動圖&lt;/span&gt;" style="text;whiteSpace=wrap;html=1;" vertex="1" parent="TLdfgpJI8PAug8Pvfu6M-1">
          <mxGeometry x="-3180" y="10" width="230" height="50" as="geometry" />
        </mxCell>
      </root>
    </mxGraphModel>
  </diagram>
</mxfile>
